<svg width="97" height="39" fill="none" xmlns="http://www.w3.org/2000/svg"><g filter="url(#a)"><ellipse cx="65.5" cy="23" rx="20.5" ry="5" fill="#03E1FF" fill-opacity=".53"/></g><path d="M18 0C8.03 0 0 8.03 0 18s8.03 18 18 18 18-8.03 18-18c0-1.939-.276-3.876-.968-5.676l-2.218 2.215A13.95 13.95 0 0 1 33.231 18c0 8.446-6.785 15.23-15.231 15.23A15.187 15.187 0 0 1 2.77 18C2.77 9.554 9.553 2.77 18 2.77c4.154 0 7.753 1.66 10.523 4.291l1.939-1.939C27.277 1.937 22.846 0 18 0Zm15.647 6.23L18 21.879l-5.955-5.955L10.11 18 18 25.891 35.584 8.308 33.647 6.23Z" fill="url(#b)"/><defs><linearGradient id="b" x1="40.615" y1="0" x2="-.016" y2="35.998" gradientUnits="userSpaceOnUse"><stop offset=".25" stop-color="#3B768F"/><stop offset=".536" stop-color="#3EC6FF"/><stop offset=".818" stop-color="#3B768F"/></linearGradient><filter id="a" x="34" y="7" width="63" height="32" filterUnits="userSpaceOnUse" color-interpolation-filters="sRGB"><feFlood flood-opacity="0" result="BackgroundImageFix"/><feBlend in="SourceGraphic" in2="BackgroundImageFix" result="shape"/><feGaussianBlur stdDeviation="5.5" result="effect1_foregroundBlur_1729_2"/></filter></defs></svg>