<svg width="50" height="50" fill="none" xmlns="http://www.w3.org/2000/svg"><path d="M19 3v1h-4v43h4v-1h1v1h1v-1h1v1h1v-1h1v1h1v-1h1v1h1v-1h1v1h1v-1h1v1h4V4h-4V3H19Zm-6 4.168L3 11.332V47h4v-2h1v2h1v-2h1v2h1v-2h1v2h1V7.168ZM19 8h1v1h-1V8Zm2 0h1v1h-1V8Zm2 0h1v1h-1V8Zm2 0h1v1h-1V8Zm2 0h1v1h-1V8Zm2 0h1v1h-1V8Zm-10 2h1v1h-1v-1Zm2 0h1v1h-1v-1Zm2 0h1v1h-1v-1Zm2 0h1v1h-1v-1Zm2 0h1v1h-1v-1Zm2 0h1v1h-1v-1Zm-17 1.734V14h-1v-1.879l1-.387ZM19 12h1v1h-1v-1Zm2 0h1v1h-1v-1Zm2 0h1v1h-1v-1Zm2 0h1v1h-1v-1Zm2 0h1v1h-1v-1Zm2 0h1v1h-1v-1Zm7 0v4h1v1h-1v1h1v1h-1v1h1v1h-1v1h1v1h-1v1h1v1h-1v1h1v1h-1v1h1v1h-1v1h1v1h-1v1h1v1h-1v1h1v1h-1v1h1v1h-1v1h1v1h-1v1h1v1h-1v1h1v1h-1v1h1v1h-1v1h1v1h1v-1h2v1h1v-1h2v1h4V12H36Zm-26 .5V14H9v-1.113l1-.387Zm-2 .766V14H7v-.348l1-.386ZM19 14h1v1h-1v-1Zm2 0h1v1h-1v-1Zm2 0h1v1h-1v-1Zm2 0h1v1h-1v-1Zm2 0h1v1h-1v-1Zm2 0h1v1h-1v-1ZM7 15h1v2H7v-2Zm2 0h1v2H9v-2Zm2 0h1v2h-1v-2Zm8 1h1v1h-1v-1Zm2 0h1v1h-1v-1Zm2 0h1v1h-1v-1Zm2 0h1v1h-1v-1Zm2 0h1v1h-1v-1Zm2 0h1v1h-1v-1Zm9 0h2v1h-2v-1Zm3 0h2v1h-2v-1ZM7 18h1v2H7v-2Zm2 0h1v2H9v-2Zm2 0h1v2h-1v-2Zm8 0h1v1h-1v-1Zm2 0h1v1h-1v-1Zm2 0h1v1h-1v-1Zm2 0h1v1h-1v-1Zm2 0h1v1h-1v-1Zm2 0h1v1h-1v-1Zm9 0h2v1h-2v-1Zm3 0h2v1h-2v-1Zm-22 2h1v1h-1v-1Zm2 0h1v1h-1v-1Zm2 0h1v1h-1v-1Zm2 0h1v1h-1v-1Zm2 0h1v1h-1v-1Zm2 0h1v1h-1v-1Zm9 0h2v1h-2v-1Zm3 0h2v1h-2v-1ZM7 21h1v2H7v-2Zm2 0h1v2H9v-2Zm2 0h1v2h-1v-2Zm8 1h1v1h-1v-1Zm2 0h1v1h-1v-1Zm2 0h1v1h-1v-1Zm2 0h1v1h-1v-1Zm2 0h1v1h-1v-1Zm2 0h1v1h-1v-1Zm9 0h2v1h-2v-1Zm3 0h2v1h-2v-1ZM7 24h1v2H7v-2Zm2 0h1v2H9v-2Zm2 0h1v2h-1v-2Zm8 0h1v1h-1v-1Zm2 0h1v1h-1v-1Zm2 0h1v1h-1v-1Zm2 0h1v1h-1v-1Zm2 0h1v1h-1v-1Zm2 0h1v1h-1v-1Zm9 0h2v1h-2v-1Zm3 0h2v1h-2v-1Zm-22 2h1v1h-1v-1Zm2 0h1v1h-1v-1Zm2 0h1v1h-1v-1Zm2 0h1v1h-1v-1Zm2 0h1v1h-1v-1Zm2 0h1v1h-1v-1Zm9 0h2v1h-2v-1Zm3 0h2v1h-2v-1ZM7 27h1v2H7v-2Zm2 0h1v2H9v-2Zm2 0h1v2h-1v-2Zm8 1h1v1h-1v-1Zm2 0h1v1h-1v-1Zm2 0h1v1h-1v-1Zm2 0h1v1h-1v-1Zm2 0h1v1h-1v-1Zm2 0h1v1h-1v-1Zm9 0h2v1h-2v-1Zm3 0h2v1h-2v-1ZM7 30h1v2H7v-2Zm2 0h1v2H9v-2Zm2 0h1v2h-1v-2Zm8 0h1v1h-1v-1Zm2 0h1v1h-1v-1Zm2 0h1v1h-1v-1Zm2 0h1v1h-1v-1Zm2 0h1v1h-1v-1Zm2 0h1v1h-1v-1Zm9 0h2v1h-2v-1Zm3 0h2v1h-2v-1Zm-22 2h1v1h-1v-1Zm2 0h1v1h-1v-1Zm2 0h1v1h-1v-1Zm2 0h1v1h-1v-1Zm2 0h1v1h-1v-1Zm2 0h1v1h-1v-1Zm9 0h2v1h-2v-1Zm3 0h2v1h-2v-1ZM7 33h1v2H7v-2Zm2 0h1v2H9v-2Zm2 0h1v2h-1v-2Zm8 1h1v1h-1v-1Zm2 0h1v1h-1v-1Zm2 0h1v1h-1v-1Zm2 0h1v1h-1v-1Zm2 0h1v1h-1v-1Zm2 0h1v1h-1v-1Zm9 0h2v1h-2v-1Zm3 0h2v1h-2v-1ZM7 36h1v2H7v-2Zm2 0h1v2H9v-2Zm2 0h1v2h-1v-2Zm8 0h1v1h-1v-1Zm2 0h1v1h-1v-1Zm2 0h1v1h-1v-1Zm2 0h1v1h-1v-1Zm2 0h1v1h-1v-1Zm2 0h1v1h-1v-1Zm9 0h2v1h-2v-1Zm3 0h2v1h-2v-1Zm-22 2h1v1h-1v-1Zm2 0h1v1h-1v-1Zm2 0h1v1h-1v-1Zm2 0h1v1h-1v-1Zm2 0h1v1h-1v-1Zm2 0h1v1h-1v-1Zm9 0h2v1h-2v-1Zm3 0h2v1h-2v-1ZM7 39h1v2H7v-2Zm2 0h1v2H9v-2Zm2 0h1v2h-1v-2Zm8 1h1v1h-1v-1Zm2 0h1v1h-1v-1Zm2 0h1v1h-1v-1Zm2 0h1v1h-1v-1Zm2 0h1v1h-1v-1Zm2 0h1v1h-1v-1Zm9 0h2v1h-2v-1Zm3 0h2v1h-2v-1ZM7 42h1v2H7v-2Zm2 0h1v2H9v-2Zm2 0h1v2h-1v-2Zm8 0h1v1h-1v-1Zm2 0h1v1h-1v-1Zm2 0h1v1h-1v-1Zm2 0h1v1h-1v-1Zm2 0h1v1h-1v-1Zm2 0h1v1h-1v-1Zm9 0h2v1h-2v-1Zm3 0h2v1h-2v-1Zm-22 2h1v1h-1v-1Zm2 0h1v1h-1v-1Zm2 0h1v1h-1v-1Zm2 0h1v1h-1v-1Zm2 0h1v1h-1v-1Zm2 0h1v1h-1v-1Zm9 0h2v1h-2v-1Zm3 0h2v1h-2v-1Z" fill="url(#a)"/><defs><linearGradient id="a" x1="52.641" y1="3" x2="2.98" y2="46.998" gradientUnits="userSpaceOnUse"><stop offset=".25" stop-color="#3B768F"/><stop offset=".536" stop-color="#3EC6FF"/><stop offset=".818" stop-color="#3B768F"/></linearGradient></defs></svg>